<svg width="769" height="54" viewBox="0 0 769 54" fill="none" xmlns="http://www.w3.org/2000/svg">
<path d="M87.5266 8.21057H101.133C112.158 8.21057 119.43 15.4827 119.43 25.3354C119.43 35.188 112.158 42.4602 101.133 42.4602H87.5266V8.21057ZM101.133 40.5835C110.985 40.5835 117.084 34.4842 117.084 25.57C117.084 16.6557 110.751 10.5564 101.133 10.5564H90.107V40.5835H101.133Z" fill="white"/>
<path d="M126.703 8.91413C126.703 7.7412 127.641 6.80286 128.814 6.80286C129.987 6.80286 130.925 7.7412 130.925 8.67955C130.925 9.85248 129.987 10.7908 128.814 10.7908C127.641 10.7908 126.703 9.85248 126.703 8.91413ZM127.406 17.1247H129.752V42.9292H127.406V17.1247Z" fill="white"/>
<path d="M140.308 6.33374H142.654V42.9292H140.308V6.33374Z" fill="white"/>
<path d="M152.507 8.91413C152.507 7.7412 153.445 6.80286 154.618 6.80286C155.791 6.80286 156.73 7.7412 156.73 8.67955C156.73 9.85248 155.791 10.7908 154.618 10.7908C153.445 10.7908 152.507 9.85248 152.507 8.91413ZM153.211 17.1247H155.557V42.9292H153.211V17.1247Z" fill="white"/>
<path d="M189.103 17.1246V40.1141C189.103 48.7938 184.88 52.5472 176.669 52.5472C171.978 52.5472 167.521 51.1397 164.94 48.5592L166.348 46.6825C168.928 49.0284 172.681 50.4359 176.669 50.4359C183.472 50.4359 186.757 47.3863 186.757 40.3487V36.1261C184.645 39.8795 180.657 41.9908 175.966 41.9908C168.693 41.9908 163.063 36.8299 163.063 29.5577C163.063 22.2855 168.693 17.1246 175.966 17.1246C180.657 17.1246 184.645 19.2359 186.757 23.2239V17.1246H189.103ZM186.757 29.3231C186.757 23.2239 182.299 19.0013 176.2 19.0013C170.101 19.0013 165.644 23.2239 165.644 29.3231C165.644 35.4224 170.101 39.6449 176.2 39.6449C182.299 39.6449 186.757 35.4224 186.757 29.3231Z" fill="white"/>
<path d="M221.475 30.4961H199.424C199.659 36.5954 204.116 40.8179 210.215 40.8179C213.499 40.8179 216.549 39.645 218.426 37.2992L219.833 38.9413C217.487 41.7563 213.969 43.1638 210.215 43.1638C202.474 43.1638 197.078 37.7683 197.078 30.027C197.078 22.2856 202.239 16.8901 209.277 16.8901C216.314 16.8901 221.475 22.2856 221.475 29.7924C221.475 30.027 221.475 30.2616 221.475 30.4961ZM199.19 28.6195H218.895C218.66 22.9894 214.438 19.0014 209.042 19.0014C203.647 19.0014 199.659 22.9894 199.19 28.6195Z" fill="white"/>
<path d="M251.972 27.6811V42.6946H249.626V27.9157C249.626 22.051 246.576 19.0014 241.415 19.0014C235.316 19.0014 231.563 22.9893 231.563 29.0886V42.6946H229.217V16.8901H231.563V22.5202C233.205 19.0014 236.958 16.6555 241.65 16.6555C247.984 16.8901 251.972 20.6435 251.972 27.6811Z" fill="white"/>
<path d="M274.961 41.0524C273.788 42.2253 271.677 42.9291 269.8 42.9291C265.343 42.9291 262.763 40.3486 262.763 35.8915V19.2359H258.071V17.1246H262.763V11.4945H265.108V17.1246H273.319V19.2359H265.108V35.8915C265.108 39.1757 266.75 41.0524 269.8 41.0524C271.442 41.0524 272.85 40.5832 273.788 39.6449L274.961 41.0524Z" fill="white"/>
<path d="M313.668 42.6946V17.5939L301.235 38.4721H298.889L286.456 17.5939V42.4601H281.764V8.21045H285.752L300.062 32.3728L314.137 8.21045H318.125V42.6946H313.668Z" fill="white"/>
<path d="M348.856 26.9775V42.6948H344.399V39.176C342.756 41.5219 339.941 42.9294 335.719 42.9294C329.854 42.9294 326.101 39.8797 326.101 35.188C326.101 30.9655 328.916 27.4467 336.657 27.4467H344.164V26.5083C344.164 22.5204 341.818 20.1745 337.126 20.1745C334.077 20.1745 330.793 21.3474 328.916 22.9895L327.039 19.4707C329.854 17.3595 333.608 16.1865 337.83 16.1865C344.868 16.4211 348.856 19.9399 348.856 26.9775ZM344.164 34.7188V30.9655H336.892C332.2 30.9655 330.793 32.8422 330.793 34.9534C330.793 37.5339 332.904 39.176 336.657 39.176C340.176 39.4106 342.991 37.7685 344.164 34.7188Z" fill="white"/>
<path d="M371.611 16.421V21.1127H370.438C365.277 21.1127 362.227 24.1624 362.227 30.027V42.9293H357.535V16.6556H361.993V21.1127C363.869 18.0631 367.153 16.421 371.611 16.421Z" fill="white"/>
<path d="M387.562 30.731L382.167 35.6573V42.6949H377.475V6.33398H382.167V29.7926L396.477 16.8904H402.107L391.081 27.6813L403.045 42.9295H397.18L387.562 30.731Z" fill="white"/>
<path d="M430.257 31.2H409.144C409.848 35.8917 413.367 38.9413 418.528 38.9413C421.578 38.9413 424.158 38.003 426.035 35.8917L428.615 38.9413C426.269 41.7564 422.75 43.1639 418.293 43.1639C409.848 43.1639 404.218 37.5338 404.218 29.7924C404.218 22.0511 409.848 16.421 417.355 16.421C424.862 16.421 430.257 21.8165 430.257 29.7924C430.257 30.2616 430.257 30.9654 430.257 31.2ZM408.91 27.9158H425.565C425.096 23.4586 421.812 20.409 417.12 20.409C412.898 20.409 409.614 23.4586 408.91 27.9158Z" fill="white"/>
<path d="M451.605 41.2873C450.197 42.4602 448.086 43.164 445.975 43.164C440.814 43.164 437.764 40.3489 437.764 34.9534V20.6437H433.307V16.6557H437.764V11.0256H442.456V16.6557H449.963V20.6437H442.456V34.7189C442.456 37.5339 443.863 39.176 446.444 39.176C447.851 39.176 449.259 38.7068 450.197 38.0031L451.605 41.2873Z" fill="white"/>
<path d="M456.296 8.67975C456.296 7.03764 457.704 5.63013 459.581 5.63013C461.457 5.63013 462.865 7.03764 462.865 8.67975C462.865 10.5564 461.457 11.7294 459.581 11.7294C457.704 11.7294 456.296 10.3219 456.296 8.67975ZM457.235 16.6557H461.926V42.6948H457.235V16.6557Z" fill="white"/>
<path d="M495.707 27.6812V42.6947H491.015V28.1503C491.015 22.9894 488.435 20.409 483.978 20.409C479.051 20.409 475.767 23.4586 475.767 29.0887V42.4601H471.075V16.6556H475.532V20.6436C477.409 18.0631 480.693 16.421 484.916 16.421C491.25 16.421 495.707 20.1744 495.707 27.6812Z" fill="white"/>
<path d="M529.722 16.6557V39.176C529.722 48.3248 525.03 52.5474 516.116 52.5474C511.424 52.5474 506.498 51.1399 503.683 48.5594L506.029 44.806C508.374 46.9173 512.128 48.0902 516.116 48.0902C522.215 48.0902 525.03 45.2752 525.03 39.4105V37.2993C522.684 40.1143 519.4 41.2872 515.647 41.2872C508.14 41.2872 502.51 36.1263 502.51 28.6196C502.51 21.1128 508.14 15.9519 515.647 15.9519C519.635 15.9519 523.153 17.3594 525.265 20.1745V16.6557H529.722ZM525.03 29.0887C525.03 23.9278 521.277 20.6436 516.116 20.6436C510.955 20.6436 507.202 23.9278 507.202 29.0887C507.202 34.0151 510.955 37.5339 516.116 37.5339C521.277 37.5339 525.03 34.0151 525.03 29.0887Z" fill="white"/>
<path d="M536.994 40.8181C536.994 39.6451 537.932 38.7068 539.105 38.7068C540.278 38.7068 541.217 39.6451 541.217 40.8181C541.217 41.991 540.278 42.9293 539.105 42.9293C537.932 42.9293 536.994 41.991 536.994 40.8181Z" fill="white"/>
<path d="M547.081 38.2374L548.254 36.3608C550.6 38.7066 555.057 40.5833 559.749 40.5833C566.552 40.5833 569.602 37.5337 569.602 33.7803C569.602 23.4585 548.02 29.5577 548.02 16.8901C548.02 11.9638 551.773 7.74121 560.218 7.74121C563.971 7.74121 567.959 8.91414 570.54 10.7908L569.602 12.9021C566.787 11.0254 563.268 10.0871 560.218 10.0871C553.415 10.0871 550.6 13.1367 550.6 16.8901C550.6 27.2119 572.182 21.1126 572.182 33.5457C572.182 38.472 568.194 42.6946 559.749 42.6946C554.588 42.9292 549.662 41.0525 547.081 38.2374Z" fill="white"/>
<path d="M576.874 30.027C576.874 22.2856 582.269 16.8901 589.776 16.8901C597.283 16.8901 602.678 22.2856 602.678 30.027C602.678 37.7683 597.283 43.1638 589.776 43.1638C582.269 43.1638 576.874 37.5337 576.874 30.027ZM600.098 30.027C600.098 23.4586 595.641 19.236 589.776 19.236C583.911 19.236 579.454 23.4586 579.454 30.027C579.454 36.5954 583.911 40.8179 589.776 40.8179C595.641 40.8179 600.098 36.3608 600.098 30.027Z" fill="white"/>
<path d="M610.42 6.33374H612.765V42.9292H610.42V6.33374Z" fill="white"/>
<path d="M645.608 17.1246V42.9291H643.262V37.2991C641.62 40.8179 638.101 42.9291 633.644 42.9291C627.075 42.9291 622.853 39.1758 622.853 32.1382V17.1246H625.198V31.9036C625.198 37.7682 628.248 40.8179 633.644 40.8179C639.508 40.8179 643.027 36.8299 643.027 30.7306V17.1246H645.608Z" fill="white"/>
<path d="M668.832 41.0524C667.659 42.2253 665.547 42.9291 663.671 42.9291C659.214 42.9291 656.633 40.3486 656.633 35.8915V19.2359H651.941V17.1246H656.633V11.4945H658.979V17.1246H667.19V19.2359H658.979V35.8915C658.979 39.1757 660.621 41.0524 663.671 41.0524C665.313 41.0524 666.72 40.5832 667.659 39.6449L668.832 41.0524Z" fill="white"/>
<path d="M674.931 8.91413C674.931 7.7412 675.869 6.80286 677.042 6.80286C678.215 6.80286 679.153 7.7412 679.153 8.67955C679.153 9.85248 678.215 10.7908 677.042 10.7908C675.869 10.7908 674.931 9.85248 674.931 8.91413ZM675.635 17.1247H677.98V42.9292H675.635V17.1247Z" fill="white"/>
<path d="M685.722 30.027C685.722 22.2856 691.117 16.8901 698.624 16.8901C706.131 16.8901 711.526 22.2856 711.526 30.027C711.526 37.7683 706.131 43.1638 698.624 43.1638C691.117 43.1638 685.722 37.5337 685.722 30.027ZM708.946 30.027C708.946 23.4586 704.489 19.236 698.624 19.236C692.759 19.236 688.302 23.6931 688.302 30.027C688.302 36.5954 692.759 40.8179 698.624 40.8179C704.489 40.8179 708.946 36.3608 708.946 30.027Z" fill="white"/>
<path d="M742.023 27.6811V42.6946H739.677V27.9157C739.677 22.051 736.627 19.0014 731.466 19.0014C725.367 19.0014 721.614 22.9893 721.614 29.0886V42.6946H719.268V16.8901H721.614V22.5202C723.256 19.0014 727.009 16.6555 731.701 16.6555C738.035 16.8901 742.023 20.6435 742.023 27.6811Z" fill="white"/>
<path d="M748.591 39.645L749.764 37.7683C751.641 39.4104 755.159 40.8179 758.913 40.8179C764.308 40.8179 766.42 38.9413 766.42 35.8916C766.42 28.3849 749.295 34.0149 749.295 23.9277C749.295 19.9398 752.579 16.8901 759.147 16.8901C762.432 16.8901 765.95 17.8285 768.062 19.4706L766.889 21.3473C764.778 19.7052 761.962 19.0014 759.147 19.0014C754.221 19.0014 751.875 21.1127 751.875 23.9277C751.875 31.6691 769 26.2736 769 35.8916C769 40.1142 765.481 42.9292 758.913 42.9292C754.456 42.9292 750.468 41.5217 748.591 39.645Z" fill="white"/>
<path fill-rule="evenodd" clip-rule="evenodd" d="M65.0061 0C65.9444 2.81504 66.8828 9.38346 65.0061 11.9639C65.2406 16.1865 64.0677 18.7669 61.4873 20.1744C68.7594 21.1128 61.0181 30.0271 60.0797 32.3729C59.376 32.8421 58.9068 33.3113 58.2031 33.7804C57.9685 34.2496 57.9685 34.7188 57.7339 35.188C55.8572 37.0647 51.1655 37.7684 47.6467 36.5955C47.6467 38.4722 49.2888 39.6451 50.2271 40.818C51.1655 42.2256 51.6346 43.8677 51.8692 45.9789C52.1038 48.5594 52.3384 50.6707 52.1038 53.0165C51.9474 53.0165 51.8692 53.0947 51.8692 53.2511C49.9925 53.4857 49.5234 51.609 48.3504 50.6707C47.1775 49.7323 45.77 49.2631 44.597 48.5594C42.4858 46.9173 41.782 43.8677 40.3745 41.7564C39.2016 45.0406 38.2632 48.5594 34.979 49.4977C33.1023 49.9669 30.5219 49.4977 28.6452 50.9053C24.6572 51.1398 16.6813 51.8436 19.9655 45.9789C18.7925 45.9789 18.7925 47.3865 17.385 47.621C16.6813 47.8556 15.5083 47.1519 14.1008 46.9173C12.6933 46.6827 11.2858 46.9173 10.582 45.9789C8.47075 46.6827 7.29781 45.2752 5.65571 44.5714C4.95195 44.3368 4.48278 44.5714 4.01361 44.3368C3.30985 44.1022 0.0256371 41.5218 0.0256371 40.818C-0.443536 37.7684 5.65571 35.6571 7.76699 34.2496C15.5083 32.6075 25.5955 31.9037 34.7444 32.6075C35.4482 31.2 35.2136 29.3233 34.5098 28.385C31.2256 28.6195 27.2377 30.0271 23.9534 30.0271C23.0151 30.0271 21.1384 30.0271 20.6692 29.0887C25.5955 28.385 30.2873 27.6812 34.7444 26.9774C34.979 26.5083 34.7444 25.3353 34.979 24.8662C35.9174 24.397 37.5595 23.4586 38.2632 24.6316C41.5474 21.3474 43.8933 16.1865 46.9429 13.3714C45.77 18.7669 42.0166 21.5819 39.2016 25.3353C39.6707 26.5083 40.8437 27.4466 42.0166 27.9158C46.7083 21.1128 49.7579 11.7293 54.9188 5.39549C57.2647 2.58045 60.7835 0.234586 65.0061 0Z" fill="white"/>
</svg>
